<?xml version="1.0" encoding="UTF-8" standalone="no"?>
<svg
   inkscape:version="1.1.2 (b8e25be833, 2022-02-05)"
   sodipodi:docname="logo-white.svg"
   id="svg2681"
   version="1.1"
   width="157"
   viewBox="0 0 157 55"
   height="55"
   fill="none"
   xmlns:inkscape="http://www.inkscape.org/namespaces/inkscape"
   xmlns:sodipodi="http://sodipodi.sourceforge.net/DTD/sodipodi-0.dtd"
   xmlns="http://www.w3.org/2000/svg"
   xmlns:svg="http://www.w3.org/2000/svg"
   xmlns:rdf="http://www.w3.org/1999/02/22-rdf-syntax-ns#"
   xmlns:cc="http://creativecommons.org/ns#"
   xmlns:dc="http://purl.org/dc/elements/1.1/">
  <metadata
     id="metadata2687">
    <rdf:RDF>
      <cc:Work
         rdf:about="">
        <dc:format>image/svg+xml</dc:format>
        <dc:type
           rdf:resource="http://purl.org/dc/dcmitype/StillImage" />
        <dc:title />
      </cc:Work>
    </rdf:RDF>
  </metadata>
  <defs
     id="defs2685" />
  <sodipodi:namedview
     inkscape:current-layer="text903"
     inkscape:window-maximized="1"
     inkscape:window-y="-9"
     inkscape:window-x="-9"
     inkscape:cy="25.456824"
     inkscape:cx="78.907697"
     inkscape:zoom="5.9119708"
     inkscape:pagecheckerboard="true"
     showgrid="false"
     id="namedview2683"
     inkscape:window-height="1013"
     inkscape:window-width="1920"
     inkscape:pageshadow="2"
     inkscape:pageopacity="0"
     guidetolerance="10"
     gridtolerance="10"
     objecttolerance="10"
     borderopacity="1"
     bordercolor="#666666"
     pagecolor="#ffffff"
     inkscape:document-rotation="0" />
  <path
     id="path2644-7"
     d="m 1.587236,48.127435 c -0.08839,-0.03853 -0.180699,-0.150712 -0.196456,-0.238756 -0.007,-0.03889 -0.0098,-2.068374 -0.0064,-4.50996 l 0.0063,-4.439244 0.04527,-0.06063 c 0.0249,-0.03335 0.07256,-0.081 0.10591,-0.105905 0.05952,-0.04444 0.08285,-0.04527 1.265061,-0.04527 1.182215,0 1.205547,8.48e-4 1.265065,0.04527 0.03335,0.0249 0.08101,0.07256 0.105905,0.105903 0.04518,0.0605 0.04529,0.06755 0.05105,3.242828 l 0.0058,3.182192 h 16.643011 16.643011 l 0.0058,-3.182192 c 0.0058,-3.175274 0.0059,-3.182327 0.05105,-3.242828 0.0249,-0.03335 0.07256,-0.081 0.105907,-0.105903 0.05952,-0.04444 0.08285,-0.04527 1.265064,-0.04527 1.182215,0 1.205547,8.48e-4 1.265064,0.04527 0.03335,0.0249 0.08101,0.07256 0.105906,0.105907 l 0.04527,0.06064 v 4.498014 4.498015 l -0.04527,0.06064 c -0.0249,0.03335 -0.07256,0.08101 -0.105906,0.105906 l -0.06064,0.04527 -19.249401,0.0046 c -15.970962,0.0039 -19.260822,-3.03e-4 -19.316378,-0.0245 z m 16.677613,-6.753779 c -0.05434,-0.0097 -0.140473,-0.02399 -0.191399,-0.03179 -0.186347,-0.02853 -0.354069,-0.08982 -0.686891,-0.251009 -0.335989,-0.162728 -0.745874,-0.489134 -0.968551,-0.771295 -0.193335,-0.244974 -0.43777,-0.722299 -0.500371,-0.977097 -0.07792,-0.317172 -0.08459,-0.356157 -0.103426,-0.604971 -0.02265,-0.29919 0.04213,-0.749267 0.157011,-1.090856 0.129418,-0.38481 0.416144,-0.837012 0.749464,-1.181991 0.08243,-0.08532 0.56981,-0.519579 1.083061,-0.965028 2.820249,-2.447677 4.471365,-3.880098 5.324632,-4.619363 0.410602,-0.35574 0.855235,-0.742133 0.988077,-0.858648 0.132841,-0.116516 1.066573,-0.927213 2.074959,-1.801549 1.008386,-0.874337 2.427928,-2.105734 3.15454,-2.736438 0.726609,-0.630706 1.38862,-1.193279 1.471135,-1.250164 0.08251,-0.05688 0.248833,-0.149941 0.369598,-0.206795 0.273154,-0.128596 0.463837,-0.191044 0.702631,-0.230106 0.03623,-0.0059 0.120216,-0.01996 0.186636,-0.03118 0.257972,-0.04359 0.953301,0.0084 1.130799,0.08454 0.02415,0.01036 0.08757,0.0307 0.140932,0.0452 0.107276,0.02915 0.28384,0.104378 0.451913,0.192537 0.099,0.05193 0.186913,0.107137 0.422668,0.265431 0.123257,0.08276 0.598343,0.598869 0.598343,0.650011 0,0.0072 0.02643,0.05494 0.05872,0.106022 0.263512,0.416795 0.404224,0.921725 0.405253,1.454231 0.0015,0.769542 -0.287238,1.459298 -0.85617,2.045361 -0.09557,0.09845 -0.997445,0.893255 -2.004169,1.766239 -1.006725,0.872986 -1.939094,1.682446 -2.071937,1.7988 -0.132841,0.116353 -1.061631,0.922656 -2.06398,1.791785 -1.002348,0.869127 -2.800645,2.429194 -3.996217,3.46681 -3.874709,3.362794 -3.767557,3.271643 -4.06209,3.455502 -0.373795,0.233336 -0.792831,0.407866 -1.086884,0.452687 -0.04227,0.0064 -0.131024,0.02033 -0.197233,0.03085 -0.151867,0.02414 -0.550906,0.02547 -0.681058,0.0023 z M 13.24762,35.699733 c -0.188417,-0.03617 -0.475605,-0.119912 -0.50392,-0.146938 -0.01148,-0.01095 -0.03398,-0.01991 -0.05001,-0.01991 -0.03555,0 -0.306177,-0.132378 -0.438635,-0.214557 -0.229786,-0.142566 -0.586457,-0.45492 -0.732828,-0.641775 -0.397813,-0.507838 -0.616862,-1.134564 -0.614658,-1.758611 0.0012,-0.323757 0.09181,-0.855559 0.158571,-0.930054 0.01027,-0.01148 0.01869,-0.03468 0.01869,-0.05156 0,-0.03899 0.156947,-0.365681 0.247837,-0.515893 0.09447,-0.156131 0.310987,-0.438652 0.455788,-0.594743 0.11196,-0.12069 0.766249,-0.692499 4.312475,-3.768844 3.050497,-2.646301 2.892047,-2.514418 3.21748,-2.678043 0.216755,-0.108982 0.353691,-0.159759 0.582254,-0.215904 0.30663,-0.07532 0.409881,-0.08776 0.72459,-0.0873 0.579126,8.47e-4 1.125451,0.158457 1.592279,0.45937 0.06663,0.04295 0.135822,0.09203 0.153761,0.109076 0.01794,0.01704 0.0797,0.06692 0.137261,0.110837 0.130898,0.09988 0.389972,0.386375 0.493688,0.545932 0.08988,0.13828 0.290815,0.520591 0.290815,0.553331 0,0.01205 0.01331,0.05304 0.02956,0.09109 0.0526,0.123125 0.09504,0.28493 0.14197,0.54127 0.02776,0.151641 0.03043,0.54004 0.005,0.733997 -0.08618,0.658393 -0.360522,1.213748 -0.848515,1.717635 -0.09538,0.09848 -0.815659,0.735432 -1.600632,1.415441 -0.784972,0.680013 -2.242384,1.943488 -3.238694,2.807728 -0.996311,0.864239 -1.900399,1.645443 -2.009088,1.736008 -0.472629,0.393822 -0.876744,0.611115 -1.39192,0.748434 -0.2256,0.06013 -0.296481,0.06883 -0.617168,0.07571 -0.243125,0.0052 -0.412848,-0.0019 -0.515994,-0.02173 z M 8.658555,30.071042 c -0.164492,-0.01024 -0.437645,-0.05317 -0.537329,-0.08444 -0.05469,-0.01716 -0.134013,-0.04165 -0.176281,-0.05443 -0.101856,-0.0308 -0.130929,-0.04304 -0.359352,-0.151368 -0.166306,-0.07887 -0.461651,-0.260329 -0.49698,-0.305349 -0.006,-0.0077 -0.04556,-0.03995 -0.08783,-0.07167 -0.405899,-0.304654 -0.769113,-0.881237 -0.924816,-1.468096 -0.08891,-0.335119 -0.11082,-0.83809 -0.05165,-1.18569 0.163206,-0.958696 0.818282,-1.787402 1.701051,-2.151916 0.216112,-0.08924 0.494458,-0.166049 0.718905,-0.198388 0.160274,-0.0231 0.692721,-0.01846 0.82908,0.0072 0.110323,0.02077 0.231418,0.04139 0.246703,0.04201 0.04555,0.0018 0.410832,0.140674 0.567568,0.215717 0.151391,0.07248 0.359316,0.194369 0.437362,0.256385 0.116818,0.09283 0.411538,0.361909 0.474183,0.432931 0.109299,0.123921 0.393058,0.555473 0.393058,0.59778 0,0.01068 0.01839,0.05387 0.04087,0.09596 0.0707,0.132387 0.177063,0.473204 0.213409,0.683817 0.03523,0.20418 0.04733,0.688864 0.02184,0.874822 -0.04844,0.353299 -0.228039,0.834757 -0.433413,1.161892 -0.146594,0.233504 -0.473352,0.594739 -0.633162,0.699968 -0.03019,0.01988 -0.104297,0.0725 -0.164681,0.11693 -0.438833,0.322907 -1.173417,0.523608 -1.778535,0.48593 z m 11.470707,-8.665006 c -0.005,-0.0045 -0.077,-0.01449 -0.160094,-0.0223 -0.08308,-0.0078 -0.158507,-0.01881 -0.167605,-0.02443 -0.0091,-0.0056 -0.05474,-0.01582 -0.101441,-0.02265 -0.240887,-0.03525 -0.852626,-0.285468 -0.943555,-0.385946 -0.02058,-0.02274 -0.04636,-0.04135 -0.05729,-0.04135 -0.02823,0 -0.207315,-0.138873 -0.329822,-0.255764 -0.389779,-0.371908 -0.676227,-0.873095 -0.81619,-1.428056 -0.08724,-0.345907 -0.109574,-0.574303 -0.110178,-1.126706 -8.47e-4,-0.722657 0.03473,-5.486698 0.0424,-5.686926 0.0035,-0.09057 0.009,-0.777286 0.01229,-1.526028 0.0078,-1.779477 0.01883,-1.926755 0.177634,-2.377278 0.257243,-0.729793 0.867612,-1.379953 1.577518,-1.680362 0.04227,-0.01789 0.114339,-0.04849 0.160159,-0.068 0.04582,-0.01951 0.122398,-0.04531 0.170169,-0.05732 0.04777,-0.01202 0.128852,-0.03255 0.180177,-0.04563 0.05133,-0.01309 0.12296,-0.0277 0.159189,-0.03249 0.03623,-0.0048 0.09421,-0.01489 0.128852,-0.02245 0.07469,-0.01629 0.567182,-0.01653 0.661609,-3.39e-4 0.03623,0.0062 0.09058,0.01646 0.120765,0.02275 0.306396,0.06387 0.290308,0.05997 0.351317,0.08527 0.01811,0.0075 0.06096,0.01839 0.09522,0.02417 0.03426,0.0058 0.07456,0.02069 0.08955,0.03313 0.015,0.01244 0.04625,0.02567 0.06946,0.02937 0.0638,0.01021 0.352306,0.161851 0.523517,0.275178 0.136534,0.09038 0.528159,0.455825 0.64053,0.597716 0.160346,0.202471 0.3639,0.584192 0.444683,0.833899 0.119434,0.369183 0.183949,0.839682 0.168602,1.229605 -0.004,0.102651 -0.01438,1.303163 -0.02297,2.667806 -0.0086,1.364642 -0.01832,2.589855 -0.02161,2.722697 -0.0033,0.132841 -0.0084,0.804734 -0.01138,1.493093 -0.0052,1.197216 -0.02687,2.111293 -0.05297,2.228659 -0.0067,0.03019 -0.01778,0.08948 -0.02459,0.131744 -0.142763,0.88578 -0.614701,1.603902 -1.337731,2.035557 -0.115124,0.06873 -0.369259,0.184156 -0.496304,0.225413 -0.07748,0.02516 -0.17546,0.05692 -0.217728,0.07057 -0.04227,0.01365 -0.106493,0.02811 -0.142722,0.03212 -0.03623,0.004 -0.115276,0.01783 -0.175659,0.03071 -0.10847,0.02313 -0.566349,0.05022 -0.583821,0.03454 z"
     style="fill:#fdfffd;fill-opacity:1;stroke-width:0.0219573" />
  <g
     aria-label="ANALYTICS EXPORT"
     id="text903"
     style="font-size:17.2267px;line-height:1.25;fill:#000000;stroke-width:0.430668"
     transform="translate(-2.4715811,-0.1114912)">
    <path
       d="m 52.215868,22.707621 h -2.83849 l 4.325027,-12.528509 h 3.413529 l 4.31891,12.528509 h -2.83849 l -3.138245,-9.665549 h -0.09788 z m -0.177406,-4.924536 h 6.70471 v 2.067693 h -6.70471 z"
       style="font-weight:bold;font-family:Inter;-inkscape-font-specification:'Inter Bold';text-align:center;text-anchor:middle;fill:#ffffff"
       id="path7505" />
    <path
       d="m 73.418905,10.179112 v 12.528509 h -2.287921 l -5.450636,-7.885375 h -0.09176 v 7.885375 h -2.64885 V 10.179112 h 2.324626 l 5.407813,7.879257 h 0.110114 v -7.879257 z"
       style="font-weight:bold;font-family:Inter;-inkscape-font-specification:'Inter Bold';text-align:center;text-anchor:middle;fill:#ffffff"
       id="path7507" />
    <path
       d="m 77.762272,22.707621 h -2.83849 l 4.325027,-12.528509 h 3.413529 l 4.31891,12.528509 h -2.83849 l -3.138245,-9.665549 h -0.09788 z m -0.177406,-4.924536 h 6.70471 v 2.067693 h -6.70471 z"
       style="font-weight:bold;font-family:Inter;-inkscape-font-specification:'Inter Bold';text-align:center;text-anchor:middle;fill:#ffffff"
       id="path7509" />
    <path
       d="M 88.486139,22.707621 V 10.179112 h 2.64885 v 10.344584 h 5.371108 v 2.183925 z"
       style="font-weight:bold;font-family:Inter;-inkscape-font-specification:'Inter Bold';text-align:center;text-anchor:middle;fill:#ffffff"
       id="path7511" />
    <path
       d="m 95.927477,10.179112 h 2.966956 l 2.856847,5.395578 h 0.12234 l 2.85685,-5.395578 h 2.96695 l -4.56972,8.099485 v 4.429024 h -2.6305 v -4.429024 z"
       style="font-weight:bold;font-family:Inter;-inkscape-font-specification:'Inter Bold';text-align:center;text-anchor:middle;fill:#ffffff"
       id="path7513" />
    <path
       d="m 109.44701,12.363036 v -2.183924 h 10.28952 v 2.183924 h -3.83563 v 10.344585 h -2.61826 V 12.363036 Z"
       style="font-weight:bold;font-family:Inter;-inkscape-font-specification:'Inter Bold';text-align:center;text-anchor:middle;fill:#ffffff"
       id="path7515" />
    <path
       d="m 124.08602,10.179112 v 12.528509 h -2.64885 V 10.179112 Z"
       style="font-weight:bold;font-family:Inter;-inkscape-font-specification:'Inter Bold';text-align:center;text-anchor:middle;fill:#ffffff"
       id="path7517" />
    <path
       d="m 137.32417,14.565313 h -2.67944 q -0.0734,-0.519982 -0.29975,-0.923733 -0.22635,-0.409868 -0.58116,-0.697387 -0.35481,-0.28752 -0.81974,-0.440456 -0.45881,-0.152936 -0.99714,-0.152936 -0.97267,0 -1.69453,0.483278 -0.72186,0.47716 -1.11949,1.394775 -0.39763,0.911498 -0.39763,2.214512 0,1.339719 0.39763,2.251217 0.40375,0.911498 1.12561,1.376423 0.72186,0.464925 1.67006,0.464925 0.53222,0 0.98491,-0.140701 0.4588,-0.140701 0.81361,-0.409868 0.35482,-0.275285 0.58728,-0.666801 0.23858,-0.391516 0.33034,-0.893146 l 2.67944,0.01224 q -0.104,0.862559 -0.51999,1.663943 -0.40986,0.795267 -1.10725,1.425362 -0.69127,0.623979 -1.65171,0.991025 -0.95432,0.360929 -2.15945,0.360929 -1.67618,0 -2.99755,-0.758562 -1.31525,-0.758562 -2.07993,-2.19616 -0.75856,-1.437597 -0.75856,-3.480821 0,-2.049341 0.7708,-3.486938 0.7708,-1.437598 2.09216,-2.190042 1.32137,-0.758563 2.97308,-0.758563 1.0889,0 2.01875,0.305872 0.93597,0.305872 1.65783,0.893146 0.72185,0.581156 1.17454,1.425362 0.45881,0.844207 0.58728,1.93311 z"
       style="font-weight:bold;font-family:Inter;-inkscape-font-specification:'Inter Bold';text-align:center;text-anchor:middle;fill:#ffffff"
       id="path7519" />
    <path
       d="m 146.02316,13.782281 q -0.0734,-0.740209 -0.6301,-1.150078 -0.55669,-0.409868 -1.51101,-0.409868 -0.64844,0 -1.09502,0.183523 -0.44657,0.177406 -0.68515,0.495513 -0.23246,0.318106 -0.23246,0.721857 -0.0122,0.336459 0.1407,0.587274 0.15905,0.250815 0.43434,0.434338 0.27528,0.177406 0.63621,0.311989 0.36093,0.128466 0.7708,0.220228 l 1.12561,0.269167 q 0.81973,0.183523 1.50489,0.489395 0.68515,0.305872 1.18678,0.752445 0.50163,0.446572 0.77691,1.052199 0.2814,0.605626 0.28752,1.388658 -0.006,1.150078 -0.58727,1.994284 -0.57504,0.838088 -1.66394,1.303014 -1.08279,0.458807 -2.61215,0.458807 -1.51712,0 -2.64273,-0.464925 -1.11949,-0.464925 -1.74959,-1.376423 -0.62398,-0.917615 -0.65456,-2.269569 h 2.5632 q 0.0428,0.630096 0.36093,1.052199 0.32422,0.415986 0.86256,0.630096 0.54445,0.207993 1.2296,0.207993 0.67292,0 1.16843,-0.195758 0.50163,-0.195758 0.77692,-0.544452 0.27528,-0.348694 0.27528,-0.801384 0,-0.422103 -0.25081,-0.709622 -0.2447,-0.28752 -0.72186,-0.489395 -0.47104,-0.201876 -1.1562,-0.367047 l -1.36418,-0.342576 q -1.58442,-0.385398 -2.50204,-1.205135 -0.91761,-0.819736 -0.91149,-2.208394 -0.006,-1.137843 0.60562,-1.988167 0.61786,-0.850324 1.69453,-1.327484 1.07667,-0.47716 2.44698,-0.47716 1.39477,0 2.43474,0.47716 1.04608,0.47716 1.62723,1.327484 0.58116,0.850324 0.59951,1.969814 z"
       style="font-weight:bold;font-family:Inter;-inkscape-font-specification:'Inter Bold';text-align:center;text-anchor:middle;fill:#ffffff"
       id="path7521" />
    <path
       d="M 65.127968,44.509634 V 31.981125 h 8.442062 v 2.183924 h -5.793212 v 2.985309 h 5.358874 v 2.183925 h -5.358874 v 2.991426 H 73.5945 v 2.183925 z"
       style="font-weight:bold;font-family:Inter;-inkscape-font-specification:'Inter Bold';text-align:center;text-anchor:middle;fill:#ffffff"
       id="path7523" />
    <path
       d="m 78.164237,31.981125 2.526501,4.26997 h 0.09788 l 2.538736,-4.26997 h 2.991426 l -3.823397,6.264254 3.909041,6.264255 H 83.35794 l -2.569323,-4.276088 h -0.09788 l -2.569323,4.276088 h -3.034248 l 3.921276,-6.264255 -3.847867,-6.264254 z"
       style="font-weight:bold;font-family:Inter;-inkscape-font-specification:'Inter Bold';text-align:center;text-anchor:middle;fill:#ffffff"
       id="path7525" />
    <path
       d="M 87.988846,44.509634 V 31.981125 h 4.942889 q 1.425362,0 2.428622,0.544452 1.003259,0.538334 1.529359,1.498771 0.532217,0.95432 0.532217,2.202277 0,1.247957 -0.538335,2.202277 -0.538334,0.95432 -1.559946,1.486537 -1.015494,0.532217 -2.459209,0.532217 h -3.15048 v -2.12275 h 2.722259 q 0.76468,0 1.260192,-0.26305 0.50163,-0.269167 0.746327,-0.74021 0.250815,-0.47716 0.250815,-1.095021 0,-0.623978 -0.250815,-1.088903 -0.244697,-0.471043 -0.746327,-0.727975 -0.50163,-0.26305 -1.272426,-0.26305 h -1.786292 v 10.362937 z"
       style="font-weight:bold;font-family:Inter;-inkscape-font-specification:'Inter Bold';text-align:center;text-anchor:middle;fill:#ffffff"
       id="path7527" />
    <path
       d="m 110.66008,38.245379 q 0,2.049341 -0.77692,3.486939 -0.7708,1.437597 -2.1044,2.196159 -1.32748,0.752445 -2.98531,0.752445 -1.67006,0 -2.99754,-0.758562 -1.32748,-0.758562 -2.09828,-2.19616 -0.770797,-1.437597 -0.770797,-3.480821 0,-2.049341 0.770797,-3.486938 0.7708,-1.437598 2.09828,-2.190042 1.32748,-0.758562 2.99754,-0.758562 1.65783,0 2.98531,0.758562 1.3336,0.752444 2.1044,2.190042 0.77692,1.437597 0.77692,3.486938 z m -2.68556,0 q 0,-1.327483 -0.39763,-2.238981 -0.39152,-0.911498 -1.10726,-1.382541 -0.71574,-0.471042 -1.67618,-0.471042 -0.96043,0 -1.67617,0.471042 -0.71574,0.471043 -1.11338,1.382541 -0.39151,0.911498 -0.39151,2.238981 0,1.327484 0.39151,2.238982 0.39764,0.911498 1.11338,1.38254 0.71574,0.471043 1.67617,0.471043 0.96044,0 1.67618,-0.471043 0.71574,-0.471042 1.10726,-1.38254 0.39763,-0.911498 0.39763,-2.238982 z"
       style="font-weight:bold;font-family:Inter;-inkscape-font-specification:'Inter Bold';text-align:center;text-anchor:middle;fill:#ffffff"
       id="path7529" />
    <path
       d="M 112.61764,44.509634 V 31.981125 h 4.94289 q 1.41925,0 2.42251,0.507747 1.00937,0.50163 1.53547,1.425363 0.53222,0.917615 0.53222,2.159454 0,1.247957 -0.53834,2.147221 -0.53833,0.893145 -1.55994,1.370305 -1.0155,0.47716 -2.45921,0.47716 h -3.30953 v -2.128868 h 2.88131 q 0.75856,0 1.26019,-0.207992 0.50163,-0.207993 0.74633,-0.623979 0.25081,-0.415985 0.25081,-1.033847 0,-0.623978 -0.25081,-1.052199 -0.2447,-0.42822 -0.75245,-0.648448 -0.50163,-0.226345 -1.26631,-0.226345 h -1.78629 v 10.362937 z m 6.76589,-5.701451 3.11377,5.701451 h -2.92413 l -3.04649,-5.701451 z"
       style="font-weight:bold;font-family:Inter;-inkscape-font-specification:'Inter Bold';text-align:center;text-anchor:middle;fill:#ffffff"
       id="path7531" />
    <path
       d="m 123.44551,34.165049 v -2.183924 h 10.28952 v 2.183924 h -3.83563 v 10.344585 h -2.61826 V 34.165049 Z"
       style="font-weight:bold;font-family:Inter;-inkscape-font-specification:'Inter Bold';text-align:center;text-anchor:middle;fill:#ffffff"
       id="path7533" />
  </g>
</svg>
